<?xml version="1.0" encoding="UTF-8"?> <svg xmlns="http://www.w3.org/2000/svg" width="860" height="140" viewBox="0 0 860 140" fill="none"> <path d="M69.1028 133C55.037 133 42.7779 130.299 32.3254 124.898C21.8729 119.497 13.8722 112.167 8.3233 102.907C2.77443 93.6481 0 83.2958 0 71.8503C0 59.376 3.16156 48.3164 9.48469 38.6713C15.9369 29.0262 24.7118 21.5031 35.8096 16.1018C47.0363 10.7006 59.6181 8 73.5548 8C79.7489 8 85.7494 8.5787 91.5563 9.73611C97.4923 10.8935 102.331 12.4367 106.074 14.3657C107.106 15.0087 107.751 15.5874 108.009 16.1018C108.267 16.6163 108.461 17.5165 108.59 18.8025L111.106 42.1435C111.106 42.5293 110.719 42.7865 109.945 42.9151C109.3 42.9151 108.913 42.7222 108.784 42.3364C105.429 32.82 99.9442 25.4897 92.3306 20.3457C84.717 15.2016 75.5549 12.6296 64.8443 12.6296C49.6172 12.6296 37.8743 17.2593 29.6155 26.5185C21.3567 35.7778 17.2273 48.5093 17.2273 64.713C17.2273 77.3158 19.6791 88.5684 24.5828 98.4707C29.4864 108.244 36.1967 115.896 44.7136 121.426C53.3595 126.956 63.1022 129.721 73.9419 129.721C80.136 129.721 84.9106 129.142 88.2657 127.985C91.6208 126.827 94.0727 124.577 95.6212 121.233C97.1697 117.889 97.944 112.938 97.944 106.38C97.944 99.6924 97.4923 95.0628 96.589 92.4907C95.8148 89.7901 94.0082 87.9897 91.1692 87.0895C88.4593 86.1893 83.6847 85.7392 76.8454 85.7392C76.0711 85.7392 75.684 85.2248 75.684 84.196C75.684 83.8102 75.7485 83.4887 75.8775 83.2315C76.1356 82.8457 76.3937 82.6528 76.6518 82.6528C86.9753 83.2958 95.3631 83.6173 101.815 83.6173C107.88 83.6173 114.333 83.4244 121.172 83.0386C121.43 83.0386 121.623 83.2315 121.752 83.6173C122.011 83.8745 122.14 84.1317 122.14 84.3889C122.14 85.2891 121.817 85.7392 121.172 85.7392C118.333 85.6106 116.333 86.0607 115.171 87.0895C114.01 87.9897 113.236 89.9187 112.849 92.8765C112.59 95.8344 112.461 100.978 112.461 108.309C112.461 114.096 112.655 118.211 113.042 120.654C113.558 123.098 113.816 124.641 113.816 125.284C113.816 126.056 113.623 126.57 113.236 126.827C112.978 126.956 112.397 127.213 111.494 127.599C95.6212 131.2 81.4909 133 69.1028 133Z" fill="#DBAF96" fill-opacity="0.2"></path> <path d="M265.537 128.37C266.053 128.37 266.311 128.756 266.311 129.528C266.311 130.299 266.053 130.685 265.537 130.685C263.085 130.685 259.149 130.557 253.729 130.299C248.567 130.042 244.761 129.914 242.309 129.914C239.341 129.914 235.663 130.042 231.276 130.299C226.888 130.557 223.598 130.685 221.404 130.685C220.888 130.685 220.63 130.299 220.63 129.528C220.63 128.756 220.888 128.37 221.404 128.37C225.791 128.37 228.953 127.985 230.888 127.213C232.824 126.313 233.792 124.77 233.792 122.583C233.792 120.397 232.824 117.375 230.888 113.517L209.209 68.7639H173.593L157.721 105.222C155.914 109.466 155.011 113.003 155.011 115.832C155.011 124.191 161.27 128.37 173.787 128.37C174.432 128.37 174.755 128.756 174.755 129.528C174.755 130.299 174.432 130.685 173.787 130.685C171.464 130.685 168.109 130.557 163.721 130.299C158.818 130.042 154.559 129.914 150.946 129.914C147.591 129.914 143.591 130.042 138.945 130.299C134.816 130.557 131.46 130.685 128.88 130.685C128.363 130.685 128.105 130.299 128.105 129.528C128.105 128.756 128.363 128.37 128.88 128.37C132.493 128.37 135.525 127.663 137.977 126.248C140.558 124.834 143.01 122.39 145.333 118.918C147.655 115.446 150.301 110.302 153.269 103.486L194.498 8.7716C194.627 8.3858 195.079 8.1929 195.853 8.1929C196.627 8.0643 197.079 8.2572 197.208 8.7716L243.857 104.258C248.245 113.646 251.987 120.011 255.084 123.355C258.181 126.699 261.665 128.37 265.537 128.37ZM175.335 64.3272H207.08L190.433 29.6049L175.335 64.3272Z" fill="#DBAF96" fill-opacity="0.2"></path> <path d="M303.292 114.289C303.292 117.889 303.615 120.526 304.26 122.198C305.035 123.741 306.389 124.834 308.325 125.477C310.261 125.991 313.293 126.248 317.423 126.248H333.876C342.005 126.248 348.716 123.869 354.007 119.111C359.426 114.224 363.04 107.666 364.846 99.4352C364.846 99.0494 365.169 98.9208 365.814 99.0494C366.588 99.0494 366.975 99.2423 366.975 99.6281C365.814 110.945 365.233 120.333 365.233 127.792C365.233 128.82 364.975 129.592 364.459 130.106C364.072 130.492 363.362 130.685 362.33 130.685H272.128C271.87 130.685 271.741 130.299 271.741 129.528C271.741 128.756 271.87 128.37 272.128 128.37C276.774 128.37 280.129 128.049 282.194 127.406C284.388 126.763 285.872 125.541 286.646 123.741C287.42 121.812 287.807 118.918 287.807 115.06V25.7469C287.807 21.8889 287.42 19.0597 286.646 17.2593C285.872 15.4588 284.388 14.2371 282.194 13.5941C280.129 12.8225 276.774 12.4367 272.128 12.4367C271.87 12.4367 271.741 12.0509 271.741 11.2793C271.741 10.5077 271.87 10.1219 272.128 10.1219L281.807 10.3148C287.485 10.572 292.066 10.7006 295.55 10.7006C299.034 10.7006 303.615 10.572 309.293 10.3148L318.971 10.1219C319.229 10.1219 319.358 10.5077 319.358 11.2793C319.358 12.0509 319.229 12.4367 318.971 12.4367C314.455 12.4367 311.1 12.8225 308.906 13.5941C306.712 14.2371 305.228 15.5231 304.454 17.4522C303.68 19.2526 303.292 22.0818 303.292 25.9398V114.289Z" fill="#DBAF96" fill-opacity="0.2"></path> <path d="M407.258 114.289C407.258 117.889 407.581 120.526 408.226 122.198C409 123.741 410.355 124.834 412.291 125.477C414.226 125.991 417.259 126.248 421.388 126.248H437.841C445.971 126.248 452.681 123.869 457.972 119.111C463.392 114.224 467.005 107.666 468.812 99.4352C468.812 99.0494 469.134 98.9208 469.78 99.0494C470.554 99.0494 470.941 99.2423 470.941 99.6281C469.78 110.945 469.199 120.333 469.199 127.792C469.199 128.82 468.941 129.592 468.425 130.106C468.038 130.492 467.328 130.685 466.295 130.685H376.094C375.836 130.685 375.707 130.299 375.707 129.528C375.707 128.756 375.836 128.37 376.094 128.37C380.74 128.37 384.095 128.049 386.159 127.406C388.353 126.763 389.837 125.541 390.611 123.741C391.386 121.812 391.773 118.918 391.773 115.06V25.7469C391.773 21.8889 391.386 19.0597 390.611 17.2593C389.837 15.4588 388.353 14.2371 386.159 13.5941C384.095 12.8225 380.74 12.4367 376.094 12.4367C375.836 12.4367 375.707 12.0509 375.707 11.2793C375.707 10.5077 375.836 10.1219 376.094 10.1219L385.772 10.3148C391.45 10.572 396.031 10.7006 399.515 10.7006C403 10.7006 407.581 10.572 413.259 10.3148L422.937 10.1219C423.195 10.1219 423.324 10.5077 423.324 11.2793C423.324 12.0509 423.195 12.4367 422.937 12.4367C418.42 12.4367 415.065 12.8225 412.871 13.5941C410.678 14.2371 409.194 15.5231 408.419 17.4522C407.645 19.2526 407.258 22.0818 407.258 25.9398V114.289Z" fill="#DBAF96" fill-opacity="0.2"></path> <path d="M566.971 101.364C566.971 101.107 567.229 100.978 567.745 100.978C568.132 100.978 568.455 101.107 568.713 101.364C569.1 101.493 569.293 101.621 569.293 101.75C568.003 111.009 567.358 119.69 567.358 127.792C567.358 128.82 567.164 129.592 566.777 130.106C566.39 130.492 565.616 130.685 564.454 130.685H481.995C481.608 130.685 481.415 130.299 481.415 129.528C481.415 128.756 481.608 128.37 481.995 128.37C486.641 128.37 489.996 128.049 492.061 127.406C494.125 126.763 495.545 125.541 496.319 123.741C497.094 121.812 497.481 118.918 497.481 115.06V25.7469C497.481 21.8889 497.094 19.0597 496.319 17.2593C495.545 15.4588 494.061 14.2371 491.867 13.5941C489.803 12.8225 486.512 12.4367 481.995 12.4367C481.608 12.4367 481.415 12.0509 481.415 11.2793C481.415 10.5077 481.608 10.1219 481.995 10.1219H560.97C562.26 10.1219 562.906 10.7006 562.906 11.858L563.293 36.1636C563.293 36.5494 562.906 36.8066 562.131 36.9352C561.486 36.9352 561.099 36.7423 560.97 36.3565C560.067 29.2834 557.55 23.9465 553.421 20.3457C549.292 16.6163 543.872 14.7515 537.161 14.7515H527.29C521.612 14.7515 517.805 15.5874 515.869 17.2593C513.934 18.8025 512.966 21.8889 512.966 26.5185V65.6775H534.258C540.839 65.6775 545.678 64.5844 548.775 62.3981C551.872 60.0833 553.421 56.5468 553.421 51.7886C553.421 51.5314 553.744 51.4028 554.389 51.4028C555.163 51.4028 555.55 51.5314 555.55 51.7886L555.357 67.9923L555.55 76.6728C555.808 80.7881 555.937 84.0031 555.937 86.3179C555.937 86.5751 555.55 86.7037 554.776 86.7037C554.002 86.7037 553.615 86.5751 553.615 86.3179C553.615 80.7881 552.001 76.7371 548.775 74.1651C545.678 71.4645 540.646 70.1142 533.677 70.1142H512.966V114.289C512.966 118.918 513.805 122.069 515.482 123.741C517.289 125.413 520.837 126.248 526.128 126.248H538.71C546.065 126.248 552.131 124.127 556.905 119.883C561.809 115.51 565.164 109.337 566.971 101.364Z" fill="#DBAF96" fill-opacity="0.2"></path> <path d="M712.336 128.37C712.595 128.37 712.724 128.756 712.724 129.528C712.724 130.299 712.595 130.685 712.336 130.685H684.269C681.172 130.685 675.301 125.22 666.655 114.289C658.138 103.229 647.944 88.1183 636.072 68.9568C633.104 69.5998 630.265 69.9213 627.555 69.9213C625.103 69.9213 621.942 69.7927 618.07 69.5355V115.06C618.07 118.918 618.457 121.812 619.232 123.741C620.006 125.541 621.425 126.763 623.49 127.406C625.684 128.049 629.103 128.37 633.749 128.37C634.136 128.37 634.33 128.756 634.33 129.528C634.33 130.299 634.136 130.685 633.749 130.685C629.749 130.685 626.587 130.621 624.264 130.492L610.328 130.299L596.778 130.492C594.326 130.621 591.036 130.685 586.906 130.685C586.519 130.685 586.326 130.299 586.326 129.528C586.326 128.756 586.519 128.37 586.906 128.37C591.552 128.37 594.971 128.049 597.165 127.406C599.359 126.763 600.843 125.541 601.617 123.741C602.391 121.812 602.779 118.918 602.779 115.06V25.7469C602.779 21.8889 602.391 19.0597 601.617 17.2593C600.843 15.4588 599.359 14.2371 597.165 13.5941C595.1 12.8225 591.745 12.4367 587.1 12.4367C586.842 12.4367 586.713 12.0509 586.713 11.2793C586.713 10.5077 586.842 10.1219 587.1 10.1219L596.778 10.3148C602.456 10.572 606.972 10.7006 610.328 10.7006C612.65 10.7006 614.844 10.6363 616.909 10.5077C618.974 10.3791 620.78 10.2505 622.329 10.1219C626.587 9.73611 630.587 9.54321 634.33 9.54321C645.298 9.54321 653.751 11.7294 659.687 16.1018C665.623 20.3457 668.591 26.2613 668.591 33.8488C668.591 39.893 666.784 45.6157 663.171 51.017C659.558 56.4182 654.848 60.7906 649.041 64.1343C659.88 80.4666 668.913 93.2623 676.14 102.522C683.495 111.652 690.012 118.275 695.69 122.39C701.368 126.377 706.917 128.37 712.336 128.37ZM618.07 64.5201C622.974 65.0345 626.781 65.2917 629.491 65.2917C637.749 65.2917 643.621 63.4913 647.105 59.8904C650.718 56.161 652.525 49.7953 652.525 40.7932C652.525 30.6337 650.589 23.4321 646.718 19.1883C642.847 14.9444 637.491 12.8225 630.652 12.8225C627.297 12.8225 624.716 13.144 622.909 13.787C621.232 14.43 620.006 15.7161 619.232 17.6451C618.457 19.4455 618.07 22.2747 618.07 26.1327V64.5201Z" fill="#DBAF96" fill-opacity="0.2"></path> <path d="M818.613 10.1219C818.871 10.1219 819 10.5077 819 11.2793C819 12.0509 818.871 12.4367 818.613 12.4367C814.225 12.4367 809.451 14.43 804.289 18.4167C799.256 22.2747 794.74 27.4187 790.739 33.8488L766.737 71.4645V115.06C766.737 119.047 767.06 121.94 767.705 123.741C768.479 125.541 769.899 126.763 771.964 127.406C774.157 128.049 777.577 128.37 782.223 128.37C782.61 128.37 782.803 128.756 782.803 129.528C782.803 130.299 782.61 130.685 782.223 130.685C778.222 130.685 775.061 130.621 772.738 130.492L758.801 130.299L745.252 130.492C742.929 130.621 739.638 130.685 735.38 130.685C734.993 130.685 734.799 130.299 734.799 129.528C734.799 128.756 734.993 128.37 735.38 128.37C740.025 128.37 743.445 128.049 745.639 127.406C747.832 126.763 749.316 125.541 750.091 123.741C750.865 121.812 751.252 118.918 751.252 115.06V74.7438L720.475 29.0262C716.346 22.8534 712.668 18.5453 709.442 16.1018C706.345 13.6584 702.99 12.4367 699.377 12.4367C698.99 12.4367 698.796 12.0509 698.796 11.2793C698.796 10.5077 698.99 10.1219 699.377 10.1219C700.796 10.1219 703.054 10.2505 706.151 10.5077L712.539 10.7006C716.798 10.7006 722.669 10.572 730.154 10.3148L741.38 10.1219C741.638 10.1219 741.767 10.5077 741.767 11.2793C741.767 12.0509 741.638 12.4367 741.38 12.4367C735.315 12.4367 732.283 13.9799 732.283 17.0664C732.283 18.481 732.992 20.2814 734.412 22.4676L764.221 66.8349L785.9 32.6914C788.997 27.6759 790.546 23.5607 790.546 20.3457C790.546 17.7737 789.643 15.8447 787.836 14.5586C786.029 13.144 783.384 12.4367 779.9 12.4367C779.513 12.4367 779.319 12.0509 779.319 11.2793C779.319 10.5077 779.513 10.1219 779.9 10.1219L789.384 10.3148C794.546 10.572 799.256 10.7006 803.515 10.7006C805.708 10.7006 808.354 10.572 811.451 10.3148L818.613 10.1219Z" fill="#DBAF96" fill-opacity="0.2"></path> </svg> 