<?xml version="1.0" encoding="UTF-8"?> <svg xmlns="http://www.w3.org/2000/svg" width="863" height="110" viewBox="0 0 863 110" fill="none"> <path d="M76.6257 8.66757H68.1905V94.5993C68.3398 97.5008 69.0987 99.3484 70.4673 100.142C71.8358 100.911 74.3365 101.295 77.9693 101.295V103.899H51.5441V101.295H60.0913V17.9675H59.7927L38.4062 76.4829L15.3027 20.2367H15.0042V90.0237C15.0042 94.4629 15.9372 97.4512 17.8034 98.9888C19.6696 100.526 22.4067 101.295 26.0147 101.295V103.899H2.16478V101.295H11.0105V19.9391C11.0105 15.4999 10.0774 12.5116 8.21123 10.974C6.34504 9.43637 3.60796 8.66757 0 8.66757V6.06358H17.2809L39.8991 60.487L60.0913 6.06358H76.6257V8.66757Z" fill="#DBAF96" fill-opacity="0.2"></path> <path d="M190.202 94.5993C190.351 97.5008 191.11 99.3484 192.479 100.142C193.847 100.911 196.348 101.295 199.981 101.295V103.899H173.555V101.295H182.103V15.3635C182.003 13.33 181.605 11.842 180.908 10.8996C180.236 9.93236 179.266 9.32477 177.997 9.07677C176.728 8.80397 174.837 8.66757 172.324 8.66757V6.06358H198.749V8.66757H190.202V94.5993ZM101.371 103.899H84.7249V101.295H93.2721V15.3635C93.2721 12.462 92.5629 10.6268 91.1446 9.85796C89.7263 9.06437 87.2256 8.66757 83.6426 8.66757V6.06358H112.68V8.66757H101.371V29.6855C109.558 25.1223 117.819 22.8407 126.154 22.8407C133.868 22.8407 140.959 24.5395 147.429 27.9371C153.898 31.3099 159.024 36.0715 162.806 42.2218C166.588 48.3474 168.479 55.2914 168.479 63.0538C168.479 74.0649 164.249 83.8733 155.789 92.4789C147.031 101.208 136.493 105.573 124.176 105.573C120.369 105.573 116.736 105.139 113.278 104.271C109.819 103.403 105.85 102.114 101.371 100.402V103.899ZM101.371 91.8465C104.084 94.0785 106.646 95.9137 109.06 97.352C111.499 98.7904 114.086 99.9188 116.823 100.737C119.585 101.531 122.546 101.928 125.706 101.928C132.201 101.928 138.085 100.328 143.361 97.1288C148.661 93.9049 152.816 89.5029 155.827 83.9229C158.862 78.3181 160.38 72.1801 160.38 65.509C160.231 60.4994 159.236 55.6634 157.394 51.001C155.578 46.3138 153.065 42.135 149.855 38.4647C146.645 34.7943 142.85 31.8803 138.471 29.7227C134.117 27.5651 129.401 26.4863 124.325 26.4863C115.791 26.4863 108.139 29.5367 101.371 35.6375V91.8465Z" fill="#DBAF96" fill-opacity="0.2"></path> <path d="M320.275 103.899V101.295H330.054V55.1302L325.165 47.9878L303.144 88.3497C299.784 94.5993 298.105 98.3068 298.105 99.4724C298.105 100.316 298.528 100.836 299.374 101.035C300.245 101.208 301.912 101.295 304.375 101.295V103.899H277.017V101.295H286.646L321.171 42.631L303.442 18.8603C300.581 15.0411 298.565 12.5364 297.396 11.346C296.226 10.1556 294.932 9.41157 293.514 9.11397C292.096 8.81637 289.545 8.66757 285.863 8.66757V6.06358H312.325V8.66757H301.763L330.054 47.9878V15.3635C330.054 12.462 329.32 10.6268 327.852 9.85796C326.409 9.06437 324.294 8.66757 321.507 8.66757V6.06358H346.738V8.66757H338.153V47.9878L359.092 18.8603C359.366 18.4635 359.95 17.6451 360.846 16.4051C361.742 15.1403 362.439 14.0615 362.936 13.1688C363.434 12.2512 363.683 11.4576 363.683 10.788C363.683 9.37437 361.804 8.66757 358.047 8.66757H355.882V6.06358H382.195V8.66757H372.566L347.036 42.631L373.947 88.3497C377.182 93.9545 380.031 97.5628 382.494 99.1748C383.838 100.092 385.02 100.675 386.04 100.923C387.06 101.171 388.727 101.295 391.041 101.295V103.899H363.832V101.295H372.081L343.043 47.9878L338.153 55.1302V94.5993C338.153 97.6 338.912 99.4724 340.43 100.216C341.973 100.936 344.473 101.295 347.932 101.295V103.899H320.275Z" fill="#DBAF96" fill-opacity="0.2"></path> <path d="M392.833 103.899V101.295H402.014V15.3635C401.915 13.33 401.517 11.842 400.82 10.8996C400.148 9.93236 399.178 9.32477 397.909 9.07677C396.64 8.80397 394.749 8.66757 392.235 8.66757V6.06358H439.002V0H441.615V32.8847H439.002V31.5083V27.5651C439.002 23.7707 438.616 20.5839 437.845 18.0047C437.074 15.4007 435.431 13.3548 432.918 11.8668C429.485 9.73396 423.164 8.66757 413.958 8.66757H410.113V32.7359H422.953V17.9675H425.566V54.0886H422.953V50.257C422.953 46.0906 422.244 42.693 420.825 40.0643C419.432 37.4107 416.521 36.0839 412.092 36.0839H410.113V101.295H411.345C416.123 101.295 420.178 101.109 423.513 100.737C426.872 100.365 429.796 99.4848 432.284 98.096C435.021 96.4592 436.825 94.2893 437.696 91.5861C438.567 88.8581 439.002 85.5473 439.002 81.6537V77.0781V74.0277H441.615V110H439.002V103.899H392.833Z" fill="#DBAF96" fill-opacity="0.2"></path> <path d="M468.189 36.3815V94.5993C468.339 97.5008 469.098 99.3484 470.466 100.142C471.835 100.911 474.335 101.295 477.968 101.295V103.899H451.543V101.295H460.09V15.3635C459.991 13.33 459.592 11.842 458.896 10.8996C458.224 9.93236 457.253 9.32477 455.984 9.07677C454.715 8.80397 452.824 8.66757 450.311 8.66757V6.06358H476.774V8.66757H468.189V33.0335H499.541V15.3635C499.442 13.33 499.044 11.842 498.347 10.8996C497.675 9.93236 496.705 9.32477 495.436 9.07677C494.167 8.80397 492.276 8.66757 489.762 8.66757V6.06358H516.188V8.66757H507.641V94.5993C507.79 97.5008 508.549 99.3484 509.917 100.142C511.286 100.911 513.786 101.295 517.419 101.295V103.899H490.994V101.295H499.541V36.3815H468.189Z" fill="#DBAF96" fill-opacity="0.2"></path> <path d="M541.642 51.4846V94.5993C541.792 97.5008 542.551 99.3484 543.919 100.142C545.288 100.911 547.788 101.295 551.421 101.295V103.899H524.996V101.295H533.543V15.3635C533.444 13.33 533.046 11.842 532.349 10.8996C531.677 9.93236 530.707 9.32477 529.438 9.07677C528.169 8.80397 526.277 8.66757 523.764 8.66757V6.06358H550.227V8.66757H541.642V46.6114L572.994 15.3635C572.994 12.4372 572.285 10.5896 570.867 9.82076C569.474 9.05197 566.923 8.66757 563.216 8.66757V6.06358H589.641V8.66757H581.094V94.5993C581.243 97.5008 582.002 99.3484 583.37 100.142C584.739 100.911 587.24 101.295 590.872 101.295V103.899H564.447V101.295H572.994V20.2367L541.642 51.4846Z" fill="#DBAF96" fill-opacity="0.2"></path> <path d="M672.91 8.66757H664.475V94.5993C664.624 97.5008 665.383 99.3484 666.752 100.142C668.12 100.911 670.621 101.295 674.254 101.295V103.899H647.829V101.295H656.376V17.9675H656.077L634.691 76.4829L611.587 20.2367H611.289V90.0237C611.289 94.4629 612.222 97.4512 614.088 98.9888C615.954 100.526 618.691 101.295 622.299 101.295V103.899H598.449V101.295H607.295V19.9391C607.295 15.4999 606.362 12.5116 604.496 10.974C602.629 9.43637 599.892 8.66757 596.284 8.66757V6.06358H613.565L636.184 60.487L656.376 6.06358H672.91V8.66757Z" fill="#DBAF96" fill-opacity="0.2"></path> <path d="M764.017 39.5807H761.405C761.405 32.7855 761.106 27.7759 760.509 24.5519C759.912 21.3279 758.792 18.6743 757.15 16.5911C754.711 13.4664 751.066 11.0608 746.214 9.37437C741.362 7.68797 736.597 6.84478 731.919 6.84478C723.409 6.84478 715.733 8.92797 708.89 13.0944C702.072 17.2607 696.723 22.9275 692.841 30.0947C688.959 37.2371 687.006 45.0242 686.981 53.4562C686.981 59.7554 688.176 65.9058 690.564 71.9073C692.953 77.8841 696.312 83.2409 700.642 87.9777C704.971 92.6897 710.022 96.3972 715.795 99.1004C721.593 101.804 727.726 103.155 734.196 103.155C745.94 102.982 756.441 98.3564 765.697 89.2797L768.459 92.4789C763.458 96.9676 757.735 100.477 751.29 103.006C744.87 105.536 738.364 106.801 731.77 106.801C722.389 106.801 713.618 104.569 705.456 100.105C697.32 95.6409 690.85 89.5153 686.048 81.7281C681.246 73.9161 678.845 65.3106 678.845 55.9114C678.845 49.1658 680.263 42.5194 683.099 35.9723C685.961 29.4251 689.793 23.7211 694.595 18.8603C699.796 13.7267 705.842 9.83316 712.735 7.17957C719.627 4.52598 726.88 3.19919 734.494 3.19919C744.422 3.19919 753.393 5.48078 761.405 10.044V1.3392H764.017V39.5807Z" fill="#DBAF96" fill-opacity="0.2"></path> <path d="M845.122 6.06358H861.806V8.66757H853.221V94.5993C853.221 97.2776 853.968 99.0632 855.461 99.956C856.978 100.849 859.492 101.295 863 101.295V103.899H836.575V101.295H845.122V80.4261C838.677 84.3197 831.573 88.1761 823.81 91.9953C816.047 95.7896 808.209 99.0012 800.296 101.63C792.408 104.259 785.541 105.573 779.693 105.573C774.941 105.573 771.32 104.457 768.832 102.225L770.064 100.7C771.93 101.717 774.381 102.225 777.417 102.225C780.104 102.225 783.513 101.506 787.643 100.068C791.774 98.6292 796.041 96.8809 800.445 94.8225C804.85 92.7641 808.793 90.9165 812.277 89.2797L816.532 87.3081V86.9733C810.884 86.7997 805.459 85.6589 800.259 83.5509C795.083 81.4181 790.468 78.4669 786.412 74.6973C782.381 70.9029 779.233 66.4762 776.969 61.417C774.704 56.3578 773.572 50.9638 773.572 45.235C773.572 39.5311 774.704 34.2363 776.969 29.3507C779.258 24.4403 782.418 20.1623 786.449 16.5167C790.48 12.8712 795.071 10.044 800.221 8.03517C805.397 6.02638 810.784 5.02198 816.383 5.02198C828.65 5.02198 838.229 7.45237 845.122 12.3132V6.06358ZM845.122 74.6601V19.6415C838.852 12.3256 830.392 8.66757 819.742 8.66757C812.874 8.66757 806.517 10.2176 800.669 13.3176C794.822 16.4175 790.194 20.7327 786.785 26.2631C783.376 31.7935 781.672 37.9687 781.672 44.7886C781.672 49.5006 782.53 54.1382 784.247 58.7014C785.964 63.2646 788.402 67.3938 791.562 71.0889C794.747 74.7593 798.442 77.6485 802.648 79.7565C806.878 81.8397 811.356 82.8813 816.084 82.8813C824.544 82.8813 833.713 79.3721 843.592 72.3537L845.122 74.6601Z" fill="#DBAF96" fill-opacity="0.2"></path> </svg> 