<?xml version="1.0" encoding="UTF-8"?> <svg xmlns="http://www.w3.org/2000/svg" width="100" height="680" viewBox="0 0 100 680" fill="none"> <path d="M89.5614 664.749V663.859C89.5614 660.047 89.3495 656.764 88.9256 654.01C88.4806 651.235 87.5269 648.789 86.0646 646.67C84.793 644.87 83.1718 643.684 81.2009 643.112C79.2088 642.54 76.7928 642.254 73.953 642.254H69.9158H55.9922V640.03H97V642.254H91.7866L91.7866 679.206H89.5614V671.676H16.1288C14.391 671.76 13.1195 672.099 12.3142 672.692C11.4877 673.264 10.9684 674.09 10.7565 675.171C10.5234 676.251 10.4068 677.861 10.4068 680H8.1816L8.1816 657.473H10.4068L10.4068 664.749H89.5614Z" fill="#DBAF96" fill-opacity="0.2"></path> <path d="M5.73385 586.461C5.73385 578.497 7.6094 571.062 11.3605 564.157C15.0904 557.251 20.2932 551.744 26.9689 547.635C33.6446 543.504 41.1468 541.344 49.4755 541.153C55.7061 541.153 61.5659 542.413 67.0548 544.934C72.5225 547.434 77.312 550.929 81.4234 555.419C85.5348 559.888 88.7031 564.972 90.9283 570.67C93.1535 576.368 94.2662 582.278 94.2662 588.399C94.2662 596.512 92.3588 604.053 88.5441 611.021C84.7295 617.99 79.4843 623.519 72.8086 627.607C66.1329 631.674 58.7049 633.707 50.5245 633.707C44.2727 633.707 38.3917 632.436 32.8816 629.894C27.3504 627.353 22.5608 623.868 18.513 619.441C14.4652 615.014 11.3287 609.962 9.10348 604.286C6.85706 598.588 5.73385 592.646 5.73385 586.461ZM48.5536 626.781C55.9286 626.759 62.8904 625.001 69.439 621.506C75.9875 617.99 81.2327 613.171 85.1745 607.05C89.0951 600.907 91.0872 594.087 91.1508 586.588C91.1508 579.577 89.3495 573.117 85.7467 567.207C82.144 561.297 77.2908 556.626 71.1874 553.195C65.0627 549.764 58.4294 548.048 51.2875 548.048C45.7562 548.175 40.4156 549.287 35.2658 551.384C30.116 553.481 25.5596 556.383 21.5965 560.09C17.6123 563.775 14.497 568.086 12.2506 573.021C9.98298 577.957 8.84917 583.263 8.84917 588.939C8.84917 594.256 9.9088 599.244 12.0281 603.904C14.1261 608.564 17.0189 612.599 20.7065 616.01C24.394 619.42 28.6537 622.068 33.4856 623.953C38.2964 625.838 43.319 626.781 48.5536 626.781Z" fill="#DBAF96" fill-opacity="0.2"></path> <path d="M96.0781 500.007V502.486L24.2032 525.013C18.8203 526.771 15.2176 528.37 13.395 529.81C11.4029 531.441 10.4068 534.004 10.4068 537.499V538.389H8.1816L8.1816 513.161H10.4068L10.4068 522.121L81.2327 500.007L24.998 486.854C21.0985 485.9 18.2799 485.424 16.5421 485.424C13.999 485.424 12.346 486.123 11.583 487.521C10.7989 488.898 10.4068 490.931 10.4068 493.621L10.4068 494.543H8.1816L8.1816 472.429H10.4068L10.4068 479.578L96.0781 500.007Z" fill="#DBAF96" fill-opacity="0.2"></path> <path d="M91.7866 469.22H89.5614V461.435H16.1288C14.391 461.52 13.1195 461.859 12.3142 462.452C11.4877 463.024 10.9684 463.85 10.7565 464.93C10.5234 466.011 10.4068 467.62 10.4068 469.76H8.1816L8.1816 429.917H3L3 427.725H31.1015V429.917H29.9253H26.5556C23.3132 429.917 20.5899 430.245 18.3859 430.902C16.1818 431.537 14.4334 432.946 13.1407 435.128C11.3181 438.051 10.4068 443.431 10.4068 451.268V454.541H30.9743L30.9743 443.579H18.3541V441.387H49.2212V443.579H45.9469C42.3865 443.579 39.4831 444.183 37.2367 445.39C34.9691 446.576 33.8353 449.055 33.8353 452.825V454.541H89.5614V453.492C89.5614 449.425 89.4024 445.973 89.0845 443.134C88.7667 440.275 88.0143 437.786 86.8275 435.668C85.4288 433.338 83.5745 431.802 81.2645 431.061C78.9545 430.298 76.1252 429.917 72.7768 429.917H68.8668H66.2601V427.725H97V429.917H91.7866L91.7866 469.22Z" fill="#DBAF96" fill-opacity="0.2"></path> <path d="M35.2658 310.356H25.3794C22.2429 310.462 19.9859 310.589 18.6084 310.737C17.2097 310.864 15.8216 311.299 14.444 312.04C10.7989 314.052 8.97633 317.219 8.97633 321.54C9.10348 324.76 10.2479 327.471 12.4095 329.674C14.55 331.877 17.2203 332.978 20.4204 332.978C23.2602 332.978 25.7503 332.247 27.8908 330.786C30.01 329.303 31.7266 327.619 33.0406 325.734C34.3333 323.849 35.9864 321.106 37.9997 317.505C40.7971 312.421 42.7892 308.863 43.976 306.829C45.1628 304.796 46.8158 302.54 48.9351 300.062C51.0543 297.562 53.5127 295.55 56.3101 294.025C59.0863 292.5 62.2758 291.737 65.8786 291.737C70.1807 291.737 74.1225 292.69 77.7041 294.597C81.2645 296.503 84.2738 299.077 86.7322 302.318C89.1693 305.558 91.0343 309.191 92.327 313.216C93.6198 317.219 94.2662 321.254 94.2662 325.321C94.2662 330.765 93.1535 335.891 90.9283 340.699C88.6819 345.507 85.4606 349.352 81.2645 352.232C77.0683 355.113 72.194 356.554 66.6415 356.554C62.4454 356.554 58.5036 355.558 54.816 353.567C51.1073 351.555 48.1615 348.79 45.9787 345.274C43.7959 341.758 42.7044 337.882 42.7044 333.645C42.7044 328.795 43.9124 324.844 46.3284 321.794C47.494 320.354 48.9881 319.146 50.8106 318.172C52.6332 317.198 54.4452 316.711 56.2465 316.711C59.0016 316.711 61.3646 317.568 63.3355 319.284C65.2852 321 66.2601 323.224 66.2601 325.956C66.2601 327.121 66.0905 328.159 65.7514 329.07L63.2719 328.435C62.9116 326.677 62.0851 325.31 60.7924 324.336C59.4996 323.34 57.8572 322.843 55.8651 322.843C52.9405 323.16 50.4927 324.442 48.5218 326.687C46.5509 328.932 45.5654 331.464 45.5654 334.281C45.5654 337.585 46.5297 340.455 48.4582 342.891C50.3656 345.327 52.8875 347.191 56.024 348.483C59.1605 349.775 62.4878 350.421 66.0057 350.421C70.6681 350.273 74.9279 349.013 78.7849 346.641C82.6208 344.247 85.6195 341.101 87.7812 337.204C89.9217 333.285 90.9919 329.017 90.9919 324.4C90.9919 319.909 89.9958 315.62 88.0037 311.532C86.0116 307.444 83.2142 304.139 79.6114 301.619C75.9875 299.098 71.8867 297.838 67.3091 297.838C63.6852 297.922 60.5063 298.96 57.7724 300.951C55.0386 302.942 52.8239 305.209 51.1285 307.751C49.4331 310.292 47.3138 313.851 44.7707 318.426C41.9945 323.34 39.8646 326.899 38.3811 329.102C36.8765 331.305 34.7996 333.264 32.1505 334.98C29.5014 336.696 26.2483 337.553 22.3913 337.553C19.17 337.553 16.3196 336.727 13.84 335.075C11.3393 333.402 9.40018 331.178 8.02266 328.403C6.62394 325.628 5.86101 322.641 5.73385 319.443C5.73385 317.367 6.465 314.338 7.92729 310.356H3L3 308.132H35.2658V310.356Z" fill="#DBAF96" fill-opacity="0.2"></path> <path d="M36.8235 242.68V244.872H34.0896C28.855 245.105 24.9556 245.37 22.3913 245.667C19.8058 245.963 17.5064 246.789 15.4931 248.145C14.1367 248.992 13.1195 249.914 12.4413 250.909C11.7632 251.884 11.2545 253.366 10.9155 255.357C10.5764 257.349 10.4068 260.145 10.4068 263.745H82.536C84.9732 263.745 86.6686 263.449 87.6223 262.856C88.915 262.03 89.5614 259.636 89.5614 255.675V252.816H91.7866L91.7866 277.948H89.5614V270.64H10.4068C10.4068 274.283 10.5764 277.09 10.9155 279.06C11.2545 281.03 11.7632 282.502 12.4413 283.476C13.1195 284.451 14.1367 285.383 15.4931 286.272C16.5739 286.971 17.8666 287.533 19.3713 287.956C20.876 288.38 22.3701 288.687 23.8536 288.878C25.3159 289.068 26.9795 289.206 28.8444 289.291C30.6882 289.375 32.4366 289.45 34.0896 289.513H36.8235V291.737H4.1444L4.1444 289.513H8.1816L8.1816 244.872H4.1444V242.68H36.8235Z" fill="#DBAF96" fill-opacity="0.2"></path> <path d="M5.73385 193.242C5.73385 185.277 7.6094 177.843 11.3605 170.937C15.0904 164.032 20.2932 158.525 26.9689 154.415C33.6446 150.285 41.1468 148.124 49.4755 147.934C55.7061 147.934 61.5659 149.194 67.0548 151.715C72.5225 154.214 77.312 157.709 81.4234 162.2C85.5348 166.669 88.7031 171.753 90.9283 177.451C93.1535 183.149 94.2662 189.058 94.2662 195.18C94.2662 203.293 92.3588 210.833 88.5441 217.802C84.7295 224.771 79.4843 230.299 72.8086 234.387C66.1329 238.454 58.7049 240.488 50.5245 240.488C44.2727 240.488 38.3917 239.217 32.8816 236.675C27.3504 234.133 22.5608 230.649 18.513 226.222C14.4652 221.795 11.3287 216.743 9.10348 211.066C6.85706 205.368 5.73385 199.427 5.73385 193.242ZM48.5536 233.561C55.9286 233.54 62.8904 231.782 69.439 228.287C75.9875 224.771 81.2327 219.952 85.1745 213.83C89.0951 207.688 91.0872 200.867 91.1508 193.369C91.1508 186.358 89.3495 179.897 85.7467 173.987C82.144 168.078 77.2908 163.407 71.1874 159.976C65.0627 156.544 58.4294 154.828 51.2875 154.828C45.7562 154.956 40.4156 156.068 35.2658 158.165C30.116 160.262 25.5596 163.164 21.5965 166.87C17.6123 170.556 14.497 174.867 12.2506 179.802C9.98298 184.737 8.84917 190.043 8.84917 195.72C8.84917 201.037 9.9088 206.025 12.0281 210.685C14.1261 215.345 17.0189 219.38 20.7065 222.79C24.394 226.201 28.6537 228.848 33.4856 230.734C38.2964 232.619 43.319 233.561 48.5536 233.561Z" fill="#DBAF96" fill-opacity="0.2"></path> <path d="M64.8296 128.012C67.7965 123.839 70.1489 119.857 71.8867 116.066C73.6033 112.274 74.4616 108.44 74.4616 104.564C74.4616 99.1627 73.0947 94.2273 70.3608 89.7579C67.627 85.2674 63.9183 81.7407 59.2347 79.1776C54.5511 76.5934 49.4331 75.3014 43.8806 75.3014C38.0103 75.4496 32.5532 76.9853 27.5093 79.9084C22.4443 82.8103 18.4388 86.7078 15.4931 91.6008C12.5261 96.4938 11.0426 101.863 11.0426 107.71C11.0426 111.946 11.9115 115.917 13.6493 119.624C15.3659 123.331 17.8455 126.561 21.0879 129.315H66.8005L64.8296 128.012ZM16.1288 129.315C10.2373 120.991 7.29151 112.836 7.29151 104.85C7.29151 100.042 8.16041 95.4347 9.89821 91.0289C11.6148 86.623 14.0202 82.7256 17.1143 79.3365C20.2084 75.9474 23.8642 73.2785 28.0815 71.3298C32.2988 69.381 36.8235 68.4067 41.6554 68.4067C46.6145 68.4067 51.2557 69.381 55.579 71.3298C59.9023 73.2573 63.664 75.9262 66.8641 79.3365C70.0429 82.7256 72.5437 86.6337 74.3662 91.0607C76.1888 95.4876 77.1743 100.126 77.3226 104.977H77.6087L79.2935 101.323C80.6499 98.4425 82.2181 95.1276 83.9983 91.3784C85.7573 87.6292 87.262 83.9859 88.5123 80.4485C89.7415 76.89 90.3561 73.9563 90.3561 71.6475C90.3561 69.0845 89.9217 67.0087 89.0528 65.42L90.3561 64.3715C92.2634 66.4897 93.2171 69.5717 93.2171 73.6174C93.2171 78.5952 92.0939 84.4519 89.8475 91.1877C87.6011 97.9023 84.8778 104.511 81.6777 111.014C78.4776 117.517 75.161 123.617 71.7278 129.315H82.536C84.4645 129.315 85.9056 129.156 86.8593 128.838C87.7918 128.521 88.4806 127.801 88.9256 126.678C89.3495 125.555 89.5614 123.744 89.5614 121.245V118.385H91.7866L91.7866 143.486H89.5614V136.21H16.1288C14.391 136.294 13.1195 136.633 12.3142 137.226C11.4877 137.798 10.9684 138.624 10.7565 139.705C10.5234 140.785 10.4068 142.395 10.4068 144.534H8.1816L8.1816 129.315H16.1288Z" fill="#DBAF96" fill-opacity="0.2"></path> <path d="M52.718 26.2761H80.724C83.7122 26.2337 85.7467 26.0854 86.8275 25.8312C87.9084 25.577 88.6395 24.9204 89.021 23.8613C89.3812 22.8022 89.5614 20.8323 89.5614 17.9516V15.8546H91.7866V42.5437H89.5614V33.1707H52.5908L19.6574 50.4869C17.517 51.673 15.8639 52.6898 14.6983 53.537C13.5327 54.3632 12.5791 55.4222 11.8373 56.7143C11.0956 57.9852 10.6188 59.7221 10.4068 61.925H8.1816L8.1816 39.3029H10.4068L10.4068 47.6273L47.9178 27.8329L22.0098 16.1406C17.856 14.3189 15.1116 13.4081 13.7765 13.4081C11.53 13.4081 10.4068 15.3992 10.4068 19.3813V20.4299H8.1816L8.1816 0H10.4068L10.4068 7.14886L52.718 26.2761Z" fill="#DBAF96" fill-opacity="0.2"></path> </svg> 